# xmcd
#
# Track frame offsets:
#	150
#	18268
#	37694
#	54795
#	73807
#	97324
#	103332
#	126395
#	147756
#	166398
#	185596
#
# Disc length: 2837 seconds
#
# Revision: 1
# Processed by: cddbd v1.5.2PL0 Copyright (c) Steve Scherf et al.
# Submitted via: EZCDAudioConverter 8.0.2.1
#
DISCID=990b130b
DTITLE=Various Artist - Ước Mơ Của Nàng
DYEAR=1993
DGENRE=
TTITLE0=Ngọc Huệ - Ước Mơ Của Nàng (All That She Wants)
TTITLE1=Don Hồ - Nỗi nhớ không tên (I Miss You)
TTITLE2=Thảo Điệp - Tình đau
TTITLE3=Thúy Vi - Tình yêu ngày thơ
TTITLE4=Thảo Điệp - Sầu vương khói mây
TTITLE5=V.A - Lời Giới Thiệu
TTITLE6=Ngọc Huệ - Tình yêu phương nào (Where Are You Now?)
TTITLE7=Don Hồ - Hỡi tình yêu (What Is Love?)
TTITLE8=Thảo Điệp - Tình em trao anh
TTITLE9=Thanh Phương - Nếu biết xa em
TTITLE10=Ngọc Huệ - Vĩnh biệt tình ta
EXTD=
EXTT0=
EXTT1=
EXTT2=
EXTT3=
EXTT4=
EXTT5=
EXTT6=
EXTT7=
EXTT8=
EXTT9=
EXTT10=
PLAYORDER=
